<svg enable-background="new 0 0 60 60" height="512" viewBox="0 0 60 60" width="512" xmlns="http://www.w3.org/2000/svg"><path d="m55.5 60h-51c-2.481 0-4.5-2.019-4.5-4.5v-51c0-2.481 2.019-4.5 4.5-4.5h51c2.481 0 4.5 2.019 4.5 4.5v51c0 2.481-2.019 4.5-4.5 4.5zm-51-58c-1.378 0-2.5 1.121-2.5 2.5v51c0 1.379 1.122 2.5 2.5 2.5h51c1.379 0 2.5-1.121 2.5-2.5v-51c0-1.379-1.122-2.5-2.5-2.5z"/><path d="m9 10h-4c-.552 0-1-.447-1-1v-4c0-.553.448-1 1-1h4c.552 0 1 .447 1 1v4c0 .553-.448 1-1 1zm-3-2h2v-2h-2z"/><path d="m17 10h-4c-.552 0-1-.447-1-1v-4c0-.553.448-1 1-1h4c.552 0 1 .447 1 1v4c0 .553-.448 1-1 1zm-3-2h2v-2h-2z"/><path d="m25 10h-4c-.552 0-1-.447-1-1v-4c0-.553.448-1 1-1h4c.552 0 1 .447 1 1v4c0 .553-.448 1-1 1zm-3-2h2v-2h-2z"/><path d="m59 14h-58c-.552 0-1-.447-1-1v-8.5c0-2.481 2.019-4.5 4.5-4.5h51c2.481 0 4.5 2.019 4.5 4.5v8.5c0 .553-.448 1-1 1zm-57-2h56v-7.5c0-1.379-1.122-2.5-2.5-2.5h-51c-1.378 0-2.5 1.121-2.5 2.5z"/><path d="m7.5 35h-1.5c-.552 0-1-.447-1-1v-1.5c0-.553.448-1 1-1s1 .447 1 1v.5h.5c.552 0 1 .447 1 1s-.448 1-1 1z"/><path d="m6 28.772c-.552 0-1-.447-1-1v-3.546c0-.553.448-1 1-1s1 .447 1 1v3.546c0 .553-.448 1-1 1z"/><path d="m6 20.5c-.552 0-1-.447-1-1v-1.5c0-.553.448-1 1-1h1.5c.552 0 1 .447 1 1s-.448 1-1 1h-.5v.5c0 .553-.448 1-1 1z"/><path d="m48.587 19h-2.935c-.552 0-1-.447-1-1s.448-1 1-1h2.935c.552 0 1 .447 1 1s-.448 1-1 1zm-6.848 0h-2.935c-.552 0-1-.447-1-1s.448-1 1-1h2.935c.552 0 1 .447 1 1s-.447 1-1 1zm-6.848 0h-2.935c-.552 0-1-.447-1-1s.448-1 1-1h2.935c.552 0 1 .447 1 1s-.448 1-1 1zm-6.848 0h-2.935c-.552 0-1-.447-1-1s.448-1 1-1h2.935c.552 0 1 .447 1 1s-.447 1-1 1zm-6.847 0h-2.935c-.552 0-1-.447-1-1s.448-1 1-1h2.935c.552 0 1 .447 1 1s-.448 1-1 1zm-6.848 0h-2.935c-.552 0-1-.447-1-1s.448-1 1-1h2.935c.552 0 1 .447 1 1s-.448 1-1 1z"/><path d="m54 20.5c-.552 0-1-.447-1-1v-.5h-.5c-.552 0-1-.447-1-1s.448-1 1-1h1.5c.552 0 1 .447 1 1v1.5c0 .553-.448 1-1 1z"/><path d="m54 28.773c-.552 0-1-.447-1-1v-3.546c0-.553.448-1 1-1s1 .447 1 1v3.546c0 .553-.448 1-1 1z"/><path d="m54 35h-1.5c-.552 0-1-.447-1-1s.448-1 1-1h.5v-.5c0-.553.448-1 1-1s1 .447 1 1v1.5c0 .553-.448 1-1 1z"/><path d="m48.587 35h-2.935c-.552 0-1-.447-1-1s.448-1 1-1h2.935c.552 0 1 .447 1 1s-.448 1-1 1zm-6.848 0h-2.935c-.552 0-1-.447-1-1s.448-1 1-1h2.935c.552 0 1 .447 1 1s-.447 1-1 1zm-6.848 0h-2.935c-.552 0-1-.447-1-1s.448-1 1-1h2.935c.552 0 1 .447 1 1s-.448 1-1 1zm-6.848 0h-2.935c-.552 0-1-.447-1-1s.448-1 1-1h2.935c.552 0 1 .447 1 1s-.447 1-1 1zm-6.847 0h-2.935c-.552 0-1-.447-1-1s.448-1 1-1h2.935c.552 0 1 .447 1 1s-.448 1-1 1zm-6.848 0h-2.935c-.552 0-1-.447-1-1s.448-1 1-1h2.935c.552 0 1 .447 1 1s-.448 1-1 1z"/><path d="m30 30c-.552 0-1-.447-1-1v-6c0-.553.448-1 1-1s1 .447 1 1v6c0 .553-.448 1-1 1z"/><path d="m33 27h-6c-.552 0-1-.447-1-1s.448-1 1-1h6c.552 0 1 .447 1 1s-.448 1-1 1z"/><path d="m54 55h-48c-.552 0-1-.447-1-1v-15c0-.553.448-1 1-1h48c.552 0 1 .447 1 1v15c0 .553-.448 1-1 1zm-47-2h46v-13h-46z"/></svg>