<svg viewBox="-60 0 512 512.00002" xmlns="http://www.w3.org/2000/svg"><path d="m384.210938 431.613281c4.179687 0 7.570312-3.390625 7.570312-7.570312v-401.25c0-12.566407-10.222656-22.792969-22.789062-22.792969h-47.402344c-93.484375 0-206.402344 0-299.757813 0-12.039062 0-21.832031 9.792969-21.832031 21.832031v225.730469c0 4.1875 3.390625 7.570312 7.570312 7.570312 4.179688 0 7.570313-3.382812 7.570313-7.570312v-51.808594h194.304687c4.183594 0 7.574219-3.390625 7.574219-7.570312 0-4.179688-3.390625-7.570313-7.574219-7.570313h-194.304687v-158.78125c0-3.695312 2.996094-6.691406 6.691406-6.691406h299.757813c3.695312 0 6.691406 2.996094 6.691406 6.691406v158.78125h-88.550781c-4.183594 0-7.570313 3.390625-7.570313 7.570313 0 4.179687 3.386719 7.570312 7.570313 7.570312h88.550781v126.359375h-313.140625v-44.269531c0-4.179688-3.390625-7.570312-7.570313-7.570312-4.179687 0-7.570312 3.390624-7.570312 7.570312v180.941406c0 12.042969 9.792969 21.84375 21.832031 21.84375h4.390625v8.578125c0 12.566407 10.226563 22.792969 22.804688 22.792969h319.964844c12.566406 0 22.789062-10.226562 22.789062-22.792969v-34.882812c0-4.179688-3.390625-7.570313-7.570312-7.570313-4.179688 0-7.570313 3.390625-7.570313 7.570313v34.882812c0 4.21875-3.429687 7.652344-7.648437 7.652344h-319.964844c-4.230469 0-7.664063-3.433594-7.664063-7.652344v-8.578125h172.03125c4.296875 0 6.371094-2.398437 9.253907-5.25-.292969.285156 103.59375-100.175781 117.886718-114 1.835938-1.777344 2.886719-4.257812 2.886719-6.8125v-24.820312c0-.019532.003906-.039063.003906-.0625 0-.019532-.003906-.039063-.003906-.0625 0-6.792969 0-293.710938 0-307.789063 0-2.332031-.363281-4.582031-1.050781-6.691406h26.621094c4.21875 0 7.648437 3.433594 7.648437 7.652344v401.25c0 4.179687 3.390625 7.570312 7.570313 7.570312zm-162.480469 23.589844v-85.707031c0-3.613282 2.9375-6.550782 6.550781-6.550782h88.855469c-58.640625 56.714844-61.792969 59.757813-95.40625 92.257813zm106.550781-107.398437h-100c-11.960938 0-21.691406 9.730468-21.691406 21.691406v95.992187c-9.390625 0-176.195313 0-184.757813 0-3.695312 0-6.691406-3.007812-6.691406-6.703125v-121.53125h313.140625zm0 0"/><path d="m249.695312 153.941406c4.328126 0 8.523438-1.277344 12.128907-3.691406l47.148437-31.617188c13.054688-8.753906 12.824219-28.023437-.40625-36.472656l-47.148437-30.109375c-10.128907-6.46875-23.632813-3.492187-30.105469 6.640625-6.46875 10.128906-3.488281 23.632813 6.640625 30.101563l19.082031 12.183593-19.488281 13.066407c-17.9375 12.023437-9.195313 39.902343 12.148437 39.898437zm-3.71875-27.324218 29.097657-19.511719c4.527343-3.035157 4.457031-9.730469-.140625-12.667969l-28.832032-18.410156c-3.09375-1.976563-4-6.097656-2.027343-9.191406 1.972656-3.085938 6.09375-4.003907 9.191406-2.027344l47.152344 30.109375c4.042969 2.585937 4.105469 8.46875.125 11.140625-49.125 32.476562-47.269531 32.742187-50.851563 32.742187-2.226562 0-4.296875-1.101562-5.535156-2.949219-2.046875-3.050781-1.253906-7.175781 1.820312-9.234374zm0 0"/><path d="m112.109375 58.6875c-6.464844-10.128906-19.96875-13.105469-30.101563-6.640625l-47.148437 30.113281c-13.246094 8.457032-13.445313 27.730469-.40625 36.472656l47.148437 31.617188c3.605469 2.414062 7.800782 3.691406 12.132813 3.691406 21.34375 0 30.078125-27.875 12.144531-39.898437l-19.488281-13.066407 19.082031-12.1875c10.128906-6.46875 13.105469-19.972656 6.636719-30.101562zm-14.785156 17.339844-28.832031 18.410156c-4.59375 2.9375-4.671876 9.632812-.140626 12.671875 28.699219 19.980469 30.988282 19.023437 31.917969 23.75 1.15625 5.847656-5.367187 10.078125-10.234375 6.8125l-47.152344-31.613281c-3.996093-2.679688-3.90625-8.5625.125-11.136719l47.148438-30.113281c3.101562-1.976563 7.222656-1.058594 9.195312 2.027344 1.972657 3.09375 1.066407 7.21875-2.027343 9.191406zm0 0"/><path d="m191.652344 48.847656c-5.761719.832032-10.851563 3.859375-14.335938 8.523438l-46.125 61.726562c-10.664062 14.269532-.554687 34.84375 17.453125 34.84375 6.84375 0 13.371094-3.273437 17.464844-8.75l46.125-61.722656c11.527344-15.425781-1.316406-37.402344-20.582031-34.621094zm9.710937 20.617188c.742188 5.140625-.582031 2.929687-47.382812 66.664062-3.535157 4.730469-11.066407 2.839844-11.917969-3.03125-.257812-1.785156.175781-3.492187 1.257812-4.9375 50.039063-65.808594 45.878907-64.398437 51.496094-64.398437 3.03125-.003907 6.039063 2.21875 6.546875 5.703125zm0 0"/><path d="m50.023438 218.648438c-4.320313 0-8.644532 1.550781-8.644532 5.207031v70.5c0 3.550781 4.324219 5.320312 8.644532 5.320312 4.324218 0 8.648437-1.773437 8.648437-5.320312v-30.039063h22.058594v30.039063c0 3.550781 4.320312 5.320312 8.644531 5.320312s8.644531-1.773437 8.644531-5.320312v-70.5c0-3.65625-4.320312-5.207031-8.644531-5.207031s-8.644531 1.550781-8.644531 5.207031v27.160156h-22.058594v-27.160156c0-3.65625-4.324219-5.207031-8.648437-5.207031zm0 0"/><path d="m136.371094 299.675781c4.320312 0 8.644531-1.773437 8.644531-5.320312v-60.191407h15.296875c3.324219 0 5.210938-3.65625 5.210938-7.867187 0-3.660156-1.554688-7.648437-5.210938-7.648437h-47.886719c-3.65625 0-5.210937 3.988281-5.210937 7.648437 0 4.210937 1.886718 7.867187 5.210937 7.867187h15.296875v60.191407c0 3.550781 4.324219 5.320312 8.648438 5.320312zm0 0"/><path d="m233.023438 299.675781c4.324218 0 8.644531-1.773437 8.644531-5.320312v-67.0625c0-6.316407-4.210938-8.644531-8.644531-8.644531-6.207032 0-8.867188.664062-13.410157 8.644531l-11.417969 19.953125-11.417968-19.953125c-4.546875-7.980469-7.207032-8.644531-13.414063-8.644531-4.324219 0-8.644531 2.328124-8.644531 8.644531v67.0625c0 3.550781 4.320312 5.320312 8.644531 5.320312s8.644531-1.773437 8.644531-5.320312v-42.675781l10.53125 19.289062c1.332032 2.550781 3.4375 3.214844 5.433594 3.214844 2.105469 0 4.320313-.777344 5.761719-3.214844l10.640625-18.179688v41.566407c.003906 3.550781 4.324219 5.320312 8.648438 5.320312zm0 0"/><path d="m264.609375 218.648438c-4.324219 0-8.644531 1.550781-8.644531 5.207031v70.5c0 3.550781 3.769531 5.320312 7.535156 5.320312h35.03125c3.324219 0 4.988281-3.769531 4.988281-7.535156 0-3.769531-1.664062-7.539063-4.988281-7.539063h-25.277344v-60.746093c0-3.65625-4.320312-5.207031-8.644531-5.207031zm0 0"/></svg>