<svg height="512pt" viewBox="-41 0 512 512.002" width="512pt" xmlns="http://www.w3.org/2000/svg"><path d="m410.972656 171.699219h-14.160156s-.035156-47.375-.078125-47.710938c.296875-2.273437-.445313-4.605469-2.121094-6.277343l-46.933593-46.941407c-2.929688-2.929687-7.679688-2.929687-10.609376 0-2.929687 2.925781-2.929687 7.675781 0 10.605469l34.082032 34.082031-85.292969-.253906c-2.335937-.007813-4.242187-1.914063-4.25-4.25l-.246094-85.292969 32.613281 32.617188c2.929688 2.929687 7.679688 2.929687 10.609376 0 2.925781-2.925782 2.925781-7.675782 0-10.605469l-45.472657-45.476563c-1.671875-1.671874-4.003906-2.414062-6.277343-2.117187-.335938-.046875-220.148438-.078125-220.148438-.078125-10.621094 0-19.261719 8.640625-19.261719 19.261719v152.4375h-14.160156c-10.625 0-19.265625 8.640625-19.265625 19.261719v130.078124c0 10.621094 8.644531 19.265626 19.265625 19.265626h14.160156v152.433593c0 10.621094 8.640625 19.265625 19.261719 19.265625h324.863281c10.621094 0 19.261719-8.644531 19.261719-19.265625v-43.363281c0-4.144531-3.359375-7.5-7.5-7.5s-7.5 3.355469-7.5 7.5v43.363281c0 2.351563-1.914062 4.265625-4.261719 4.265625h-324.863281c-2.351562 0-4.261719-1.914062-4.261719-4.265625v-152.4375h333.382813v76.410157c0 4.144531 3.359375 7.5 7.5 7.5 4.144531 0 7.5-3.355469 7.5-7.5v-76.410157h14.164062c10.621094 0 19.261719-8.640625 19.261719-19.261719v-130.078124c0-10.621094-8.640625-19.261719-19.261719-19.261719zm4.261719 149.339843c0 2.351563-1.910156 4.261719-4.261719 4.261719h-391.707031c-2.351563 0-4.265625-1.910156-4.265625-4.261719v-130.078124c0-2.351563 1.914062-4.261719 4.265625-4.261719h209.140625c4.140625 0 7.5-3.359375 7.5-7.5 0-4.144531-3.359375-7.5-7.5-7.5h-179.980469v-152.4375c0-2.351563 1.910157-4.261719 4.261719-4.261719h213.644531l.277344 95.996094c.03125 10.558594 8.644531 19.175781 19.207031 19.207031l95.996094.285156v41.210938h-120.746094c-4.144531 0-7.5 3.355469-7.5 7.5 0 4.140625 3.355469 7.5 7.5 7.5h149.90625c2.351563 0 4.261719 1.910156 4.261719 4.261719zm0 0"/><path d="m342.117188 362.5h-46c-4.140626 0-7.5 3.355469-7.5 7.5 0 4.140625 3.359374 7.5 7.5 7.5h46c4.144531 0 7.5-3.359375 7.5-7.5 0-4.144531-3.355469-7.5-7.5-7.5zm0 0"/><path d="m342.117188 386.5h-23c-4.140626 0-7.5 3.355469-7.5 7.5s3.359374 7.5 7.5 7.5h23c4.144531 0 7.5-3.355469 7.5-7.5s-3.355469-7.5-7.5-7.5zm0 0"/><path d="m90.089844 476.851562h252.027344c4.144531 0 7.5-3.355468 7.5-7.5 0-4.140624-3.355469-7.5-7.5-7.5h-252.027344c-4.144532 0-7.5 3.359376-7.5 7.5 0 4.144532 3.355468 7.5 7.5 7.5zm0 0"/><path d="m378.617188 236.125h-21c-4.140626 0-7.5 3.359375-7.5 7.5 0 4.144531 3.359374 7.5 7.5 7.5h21c4.144531 0 7.5-3.355469 7.5-7.5 0-4.140625-3.355469-7.5-7.5-7.5zm0 0"/><path d="m378.617188 260.875h-21c-4.140626 0-7.5 3.355469-7.5 7.5 0 4.140625 3.359374 7.5 7.5 7.5h21c4.144531 0 7.5-3.359375 7.5-7.5 0-4.144531-3.355469-7.5-7.5-7.5zm0 0"/><path d="m72.617188 236.125h-21c-4.140626 0-7.5 3.359375-7.5 7.5 0 4.144531 3.359374 7.5 7.5 7.5h21c4.144531 0 7.5-3.355469 7.5-7.5 0-4.140625-3.355469-7.5-7.5-7.5zm0 0"/><path d="m72.617188 260.875h-21c-4.140626 0-7.5 3.355469-7.5 7.5 0 4.140625 3.359374 7.5 7.5 7.5h21c4.144531 0 7.5-3.359375 7.5-7.5 0-4.144531-3.355469-7.5-7.5-7.5zm0 0"/><path d="m240.117188 401.5c10.75 0 19.5-8.746094 19.5-19.5s-8.75-19.5-19.5-19.5h-145.5c-10.75 0-19.5 8.746094-19.5 19.5s8.75 19.5 19.5 19.5zm-150-19.5c0-2.480469 2.019531-4.5 4.5-4.5h145.5c2.480468 0 4.5 2.019531 4.5 4.5s-2.019532 4.5-4.5 4.5h-145.5c-2.480469 0-4.5-2.019531-4.5-4.5zm0 0"/><path d="m210.050781 207.210938c-1.160156-2.804688-3.898437-4.632813-6.933593-4.632813-3.03125 0-5.769532 1.828125-6.929688 4.632813l-38 91.84375c-1.582031 3.828124.238281 8.214843 4.066406 9.796874 3.828125 1.585938 8.210938-.234374 9.796875-4.0625l11.449219-27.671874h39.238281l11.449219 27.671874c1.199219 2.890626 3.992188 4.636719 6.933594 4.636719.957031 0 1.929687-.183593 2.863281-.570312 3.828125-1.585938 5.648437-5.972657 4.066406-9.800781zm-20.34375 54.902343 13.414063-32.417969 13.414062 32.417969zm0 0"/><path d="m265.117188 240.5c-4.140626 0-7.5 3.355469-7.5 7.5v53.921875c0 4.144531 3.359374 7.5 7.5 7.5 4.144531 0 7.5-3.355469 7.5-7.5v-53.921875c0-4.144531-3.355469-7.5-7.5-7.5zm0 0"/><path d="m265.117188 217.125c-4.140626 0-7.5 3.359375-7.5 7.5v1.375c0 4.144531 3.359374 7.5 7.5 7.5 4.144531 0 7.5-3.355469 7.5-7.5v-1.375c0-4.140625-3.355469-7.5-7.5-7.5zm0 0"/><path d="m181 82.03125c-2.316406-2.3125-5.394531-3.589844-8.671875-3.589844-2.929687 0-5.695313 1.023438-7.90625 2.894532l-7.777344-7.777344c-4.183593-4.1875-9.332031-7.011719-14.863281-8.335938l5.0625-5.0625c2.148438.839844 4.453125 1.292969 6.832031 1.292969 5 0 9.707031-1.949219 13.242188-5.484375 3.539062-3.539062 5.484375-8.242188 5.484375-13.246094s-1.945313-9.707031-5.484375-13.242187c-3.535157-3.539063-8.238281-5.488281-13.242188-5.488281-5.003906 0-9.707031 1.949218-13.246093 5.488281-3.539063 3.535156-5.484376 8.238281-5.484376 13.242187 0 2.378906.453126 4.679688 1.292969 6.832032l-10.800781 10.796874c-2.207031-1.871093-4.976562-2.898437-7.90625-2.898437-3.273438 0-6.355469 1.277344-8.671875 3.59375l-9.144531 9.144531c-2.316406 2.316406-3.589844 5.394532-3.589844 8.671875 0 2.929688 1.027344 5.695313 2.894531 7.90625l-10.796875 10.796875c-2.148437-.839844-4.453125-1.292968-6.828125-1.292968-5.003906 0-9.707031 1.945312-13.246093 5.484374-3.535157 3.539063-5.484376 8.242188-5.484376 13.246094 0 5 1.949219 9.707032 5.484376 13.242188 3.539062 3.539062 8.242187 5.484375 13.246093 5.484375 5.003907 0 9.707031-1.945313 13.246094-5.484375 5.414063-5.417969 6.804687-13.351563 4.183594-20.070313l5.074219-5.070312c1.332031 5.546875 4.171874 10.707031 8.332031 14.867187l7.777343 7.777344c-1.871093 2.210938-2.894531 4.976562-2.894531 7.90625 0 3.277344 1.273438 6.355469 3.589844 8.671875l9.144531 9.144531c2.390625 2.390625 5.53125 3.585938 8.671875 3.585938s6.28125-1.195313 8.671875-3.585938l9.144532-9.144531c2.316406-2.316406 3.59375-5.394531 3.59375-8.671875s-1.277344-6.355469-3.59375-8.675781l-9.144532-9.140625c-2.316406-2.316406-5.394531-3.59375-8.671875-3.59375-2.925781 0-5.695312 1.027344-7.90625 2.898437l-7.777343-7.78125c-2.015626-2.015625-3.433594-4.484375-4.183594-7.148437 2.855468-.253906 5.503906-1.488282 7.554687-3.539063l9.140625-9.140625c2.054688-2.054687 3.285156-4.710937 3.539063-7.570312 2.65625.75 5.121093 2.171875 7.148437 4.199218l7.78125 7.78125c-1.871094 2.207032-2.898437 4.976563-2.898437 7.902344 0 3.277344 1.277343 6.355469 3.59375 8.675782l9.140625 9.140624c2.316406 2.316407 5.398437 3.59375 8.675781 3.59375s6.355469-1.273437 8.671875-3.59375l9.140625-9.140624c2.320313-2.316407 3.59375-5.398438 3.59375-8.675782s-1.273437-6.355468-3.59375-8.671875zm-29.964844-41.945312c.949219-.949219 2.0625-1.09375 2.636719-1.09375.578125 0 1.6875.144531 2.640625 1.09375 1.453125 1.453124 1.453125 3.820312 0 5.273437-.953125.953125-2.0625 1.09375-2.636719 1.09375-.578125 0-1.6875-.140625-2.640625-1.09375-.949218-.949219-1.089844-2.058594-1.089844-2.636719-.003906-.578125.140626-1.6875 1.089844-2.636718zm-67.003906 77.554687c-.949219.949219-2.058594 1.089844-2.636719 1.089844s-1.6875-.140625-2.636719-1.089844c-1.457031-1.457031-1.457031-3.824219 0-5.277344.949219-.949219 2.058594-1.09375 2.636719-1.09375s1.6875.144531 2.636719 1.09375c1.457031 1.453125 1.457031 3.820313 0 5.277344zm59.765625 16.015625-5.277344 5.273438-5.273437-5.273438 5.273437-5.277344zm-26.261719-49.519531-5.277344-5.273438 5.277344-5.277343 5.273438 5.277343zm54.792969 20.988281-5.277344-5.277344 5.277344-5.273437 5.273437 5.273437zm0 0"/></svg>