<svg height="512pt" viewBox="-41 0 512 512.002" width="512pt" xmlns="http://www.w3.org/2000/svg"><path d="m410.972656 171.699219h-14.160156s-.035156-47.375-.078125-47.710938c.296875-2.273437-.445313-4.605469-2.121094-6.277343l-115.5-115.515626c-1.671875-1.671874-4.003906-2.414062-6.277343-2.117187-.335938-.046875-136.738282-.078125-136.738282-.078125-4.140625 0-7.5 3.355469-7.5 7.5s3.359375 7.5 7.5 7.5h130.234375l.277344 95.996094c.03125 10.558594 8.648437 19.175781 19.207031 19.207031l95.996094.285156v41.210938h-333.386719v-152.4375c0-2.351563 1.910157-4.261719 4.261719-4.261719h50.75c4.140625 0 7.5-3.355469 7.5-7.5s-3.359375-7.5-7.5-7.5h-50.75c-10.621094 0-19.261719 8.640625-19.261719 19.261719v152.4375h-14.160156c-10.625 0-19.265625 8.640625-19.265625 19.261719v130.078124c0 10.621094 8.644531 19.265626 19.265625 19.265626h14.160156v152.433593c0 10.621094 8.640625 19.265625 19.261719 19.265625h224.742188c4.140624 0 7.5-3.359375 7.5-7.5 0-4.144531-3.359376-7.5-7.5-7.5h-224.742188c-2.351562 0-4.261719-1.914062-4.261719-4.265625v-152.4375h49.011719c4.140625 0 7.5-3.355469 7.5-7.5 0-4.140625-3.359375-7.5-7.5-7.5h-78.171875c-2.351563 0-4.265625-1.910156-4.265625-4.261719v-130.078124c0-2.351563 1.914062-4.261719 4.265625-4.261719h391.707031c2.351563 0 4.261719 1.910156 4.261719 4.261719v130.078124c0 2.351563-1.910156 4.261719-4.261719 4.261719h-280.875c-4.140625 0-7.5 3.359375-7.5 7.5 0 4.144531 3.359375 7.5 7.5 7.5h251.710938v152.4375c0 2.351563-1.910156 4.261719-4.261719 4.261719h-67.457031c-4.144532 0-7.5 3.359375-7.5 7.5 0 4.144531 3.355468 7.5 7.5 7.5h67.457031c10.621094 0 19.261719-8.640625 19.261719-19.261719v-152.4375h14.164062c10.621094 0 19.261719-8.640625 19.261719-19.261719v-130.078124c0-10.621094-8.640625-19.261719-19.261719-19.261719zm-125.113281-56.496094c-2.335937-.007813-4.246094-1.914063-4.25-4.25l-.246094-85.292969 89.789063 89.796875zm0 0"/><path d="m169.972656 296.84375v-29.5h22.039063c13.214843 0 23.960937-10.746094 23.960937-23.960938v-12.078124c0-13.210938-10.75-23.960938-23.960937-23.960938h-23.078125c-7.699219 0-13.960938 6.265625-13.960938 13.960938v75.539062c0 4.144531 3.359375 7.5 7.5 7.5s7.5-3.355469 7.5-7.5zm0-74.5h22.039063c4.941406 0 8.960937 4.019531 8.960937 8.960938v12.078124c0 4.941407-4.019531 8.960938-8.960937 8.960938h-22.039063zm0 0"/><path d="m250.257812 289.414062h-18.285156c-4.140625 0-7.5 3.355469-7.5 7.5 0 4.144532 3.359375 7.5 7.5 7.5h18.285156c13.789063 0 25.007813-11.21875 25.007813-25.007812s-11.21875-25.007812-25.007813-25.007812h-3.890624c-3.800782 0-6.894532-3.089844-6.894532-6.894532 0-3.800781 3.09375-6.894531 6.894532-6.894531h21.398437c4.140625 0 7.5-3.355469 7.5-7.5 0-4.140625-3.359375-7.5-7.5-7.5h-21.398437c-12.070313 0-21.894532 9.824219-21.894532 21.894531 0 12.074219 9.824219 21.894532 21.894532 21.894532h3.890624c5.519532 0 10.007813 4.492187 10.007813 10.007812 0 5.519531-4.488281 10.007812-10.007813 10.007812zm0 0"/><path d="m342.117188 362.5h-46c-4.140626 0-7.5 3.355469-7.5 7.5 0 4.140625 3.359374 7.5 7.5 7.5h46c4.144531 0 7.5-3.359375 7.5-7.5 0-4.144531-3.355469-7.5-7.5-7.5zm0 0"/><path d="m342.117188 386.5h-23c-4.140626 0-7.5 3.355469-7.5 7.5s3.359374 7.5 7.5 7.5h23c4.144531 0 7.5-3.355469 7.5-7.5s-3.355469-7.5-7.5-7.5zm0 0"/><path d="m90.089844 476.851562h252.027344c4.144531 0 7.5-3.355468 7.5-7.5 0-4.140624-3.355469-7.5-7.5-7.5h-252.027344c-4.144532 0-7.5 3.359376-7.5 7.5 0 4.144532 3.355468 7.5 7.5 7.5zm0 0"/><path d="m357.617188 251.125h21c4.144531 0 7.5-3.355469 7.5-7.5 0-4.140625-3.355469-7.5-7.5-7.5h-21c-4.140626 0-7.5 3.359375-7.5 7.5 0 4.144531 3.359374 7.5 7.5 7.5zm0 0"/><path d="m357.617188 275.875h21c4.144531 0 7.5-3.359375 7.5-7.5 0-4.144531-3.355469-7.5-7.5-7.5h-21c-4.140626 0-7.5 3.355469-7.5 7.5 0 4.140625 3.359374 7.5 7.5 7.5zm0 0"/><path d="m72.617188 236.125h-21c-4.140626 0-7.5 3.359375-7.5 7.5 0 4.144531 3.359374 7.5 7.5 7.5h21c4.144531 0 7.5-3.355469 7.5-7.5 0-4.140625-3.355469-7.5-7.5-7.5zm0 0"/><path d="m72.617188 260.875h-21c-4.140626 0-7.5 3.355469-7.5 7.5 0 4.140625 3.359374 7.5 7.5 7.5h21c4.144531 0 7.5-3.359375 7.5-7.5 0-4.144531-3.355469-7.5-7.5-7.5zm0 0"/><path d="m84.308594 84.042969c-8.707032 8.707031-26.761719 40.988281-13.1875 54.5625 3.496094 3.496093 8.234375 4.894531 13.488281 4.894531 15.152344 0 34.613281-11.617188 41.074219-18.078125v-.003906c5.441406-5.441407 8.28125-12.507813 8.53125-19.648438l37.761718-37.761719c4.042969-4.042968 6.265626-9.414062 6.265626-15.128906s-2.226563-11.089844-6.265626-15.128906c-8.339843-8.339844-21.914062-8.339844-30.253906 0l-37.761718 37.761719c-7.144532.253906-14.210938 3.089843-19.652344 8.53125zm30.769531 30.769531c-3.140625 3.140625-10.964844 8.144531-19.289063 11.242188-8.90625 3.308593-13.421874 2.585937-14.0625 1.945312-.636718-.640625-1.363281-5.15625 1.949219-14.0625 3.09375-8.324219 8.101563-16.148438 11.238281-19.289062 2.691407-2.691407 6.273438-4.175782 10.082032-4.175782s7.390625 1.484375 10.082031 4.175782c5.558594 5.5625 5.558594 14.605468 0 20.164062zm37.25-66.453125c2.492187-2.496094 6.550781-2.492187 9.042969 0 1.207031 1.207031 1.871094 2.8125 1.871094 4.519531 0 1.707032-.664063 3.3125-1.871094 4.519532l-31.671875 31.667968c-1.128907-1.78125-2.460938-3.46875-4.015625-5.023437-1.550782-1.550781-3.242188-2.886719-5.023438-4.015625zm0 0"/><path d="m240.117188 401.5c10.75 0 19.5-8.746094 19.5-19.5s-8.75-19.5-19.5-19.5h-145.5c-10.75 0-19.5 8.746094-19.5 19.5s8.75 19.5 19.5 19.5zm-150-19.5c0-2.480469 2.019531-4.5 4.5-4.5h145.5c2.480468 0 4.5 2.019531 4.5 4.5s-2.019532 4.5-4.5 4.5h-145.5c-2.480469 0-4.5-2.019531-4.5-4.5zm0 0"/></svg>